M48
;Layer_Color=9474304
;FILE_FORMAT=4:4
METRIC,LZ
;TYPE=PLATED
T01F00S00C0.3000
T02F00S00C0.3300
T03F00S00C0.5000
T04F00S00C0.7110
T05F00S00C0.7112
T06F00S00C0.9000
T07F00S00C0.9906
T08F00S00C1.0000
T10F00S00C1.0500
T11F00S00C2.5000
%
T01
X00828045Y00180665
X00798Y00267
X00765952Y00291328
X00772672Y00383616
X0079687Y00383982
X0081487
Y00418982
X00825Y00422
X0079587Y00419982
X00772Y00425
X00771Y00435
X00755355Y00418355
X00708625Y00364625
Y00348625
X00722625Y00334655
X0071095Y0030005
X0068495Y0030105
X0067195Y0030005
X00651Y00341
Y00354
X00654Y00365
X00626Y0037
X00641125Y00401625
X00636Y00427
X00703Y00224
X00348726Y00136774
X003Y00169
X00286Y00168
X00277Y00161
X0021Y00169
X00216Y00178
X00184Y00206
X00286Y00232
X00303
X00318Y00228
X002555Y002905
X00193Y00394
Y00409
X00192Y00423
Y00435
X0016
X00161Y00423
X00158Y00409
Y00394
X00032Y00774
X00569Y00711
X00575703Y00676297
X00571889Y00547362
X00601Y00545
X00599Y00504
X00631Y00497
Y00485
X00632Y00471
X00628Y00453454
X00629Y0044
X00693056Y00445504
X00708Y00458
X00705Y0047
X00703Y00484
X00707Y00499
X00688Y00497
X00573Y0049
X00555
X00537675Y00520885
X00474175Y00520129
X0048625Y0050185
X004864Y0045765
X00732224Y00457984
X00745666Y00461354
X00767697Y004722
X00769Y00478
X00765Y00491
X00778Y00445
X00796Y00455
X00076288Y00859712
T02
X00682625Y00389625
X00694625
X00706625
X00718625
Y00401625
X00706625
X00694625
X00682625
Y00413625
Y00425625
X00694625
Y00413625
X00706625
Y00425625
X00718625
Y00413625
T03
X0035584Y0008448
X00400064Y00083328
X00415552Y0008256
X00506Y00083
X00550842Y00084394
X00565824Y00082496
X00659008Y0008288
X0070432Y0008224
X00718528
X00264Y00082
X0024858Y00082073
X00204288Y00082944
X00812Y00744
X00832Y00764
X00811Y00806
T04
X00274944Y00711552
X00314886Y00711541
X00322Y0074
X00214Y00781
T05
X0075115Y0013425
X0077245
X007935
X008145
X008357Y0024475
Y0026575
Y002868
Y003081
Y003282
Y0034855
Y0036925
X008058Y0036815
X0075635Y0036575
X0068Y00327
X0069Y0013425
X007107
X0073105
X00314Y00192
X000275Y00185366
Y0021965
Y002524
Y0028405
Y0031551
Y003473
Y003808
Y004118
Y001503
Y00446
Y0047645
Y005093
Y0053809
Y0056834
Y006012
X001791Y006035
X001793Y005812
X0018042Y0067764
X00150563Y00677938
X0021692Y0067724
X00323327Y00684608
X003231Y00607
X003235Y005787
X00318118Y0048834
X00333084
X00302159
X00284199
X00266239
X00275Y00795
Y00815
X00295
Y00795
X00315
Y00815
Y00835
X00295
X00275
X00255
X00235
Y00815
Y00795
X00255
Y00815
X00115438Y00728813
X00387264Y00630976
X00371199Y00515259
X00351199
X00606Y00524
X00655Y00512
X00736Y00515
X0083575Y0051195
Y004916
Y004715
Y004502
X008106Y0045035
X0083575Y0053265
X00315Y00855
X00295
X00275
X00255
X00235
Y00875
X00255
X00275
X00295
X00315
T06
X00217925Y00274625
X00230625
X00243325
T07
X000896Y001142
Y001396
Y00165
Y001904
X00115
Y002158
Y002412
X000896
Y002158
Y002666
Y00292
Y003174
Y003428
Y003682
Y003936
Y00419
X00115
Y003936
Y003682
Y003428
Y003174
Y00292
Y002666
Y00165
Y001396
Y001142
Y004444
X000896
Y004698
Y004952
Y005206
Y00546
X00115
Y005714
Y005968
X000896
Y005714
X00115Y005206
Y004952
Y004698
T08
X00603375Y00588625
Y00613625
Y00638625
Y00663625
Y00688625
X00673375
Y00663625
Y00638625
Y00613625
Y00588625
Y00761125
Y00786125
Y00811125
X00603375
Y00786125
Y00761125
X00533375
Y00786125
Y00811125
X00463375
Y00786125
Y00761125
X00743375
Y00786125
Y00811125
Y00688625
Y00663625
Y00638625
Y00613625
Y00588625
X00813375
Y00613625
Y00638625
Y00663625
Y00688625
X00743375Y00836125
X00673375
X00603375
X00533375
X00463375
T10
X00398625Y00808625
Y00833625
T11
X0003Y0003
X00825
Y00865
X00035
M30
