%TF.GenerationSoftware,KiCad,Pcbnew,8.0.8*%
%TF.CreationDate,2025-02-04T22:00:34-05:00*%
%TF.ProjectId,lysimeter-pcb,6c797369-6d65-4746-9572-2d7063622e6b,rev?*%
%TF.SameCoordinates,Original*%
%TF.FileFunction,Soldermask,Top*%
%TF.FilePolarity,Negative*%
%FSLAX46Y46*%
G04 Gerber Fmt 4.6, Leading zero omitted, Abs format (unit mm)*
G04 Created by KiCad (PCBNEW 8.0.8) date 2025-02-04 22:00:34*
%MOMM*%
%LPD*%
G01*
G04 APERTURE LIST*
G04 Aperture macros list*
%AMRoundRect*
0 Rectangle with rounded corners*
0 $1 Rounding radius*
0 $2 $3 $4 $5 $6 $7 $8 $9 X,Y pos of 4 corners*
0 Add a 4 corners polygon primitive as box body*
4,1,4,$2,$3,$4,$5,$6,$7,$8,$9,$2,$3,0*
0 Add four circle primitives for the rounded corners*
1,1,$1+$1,$2,$3*
1,1,$1+$1,$4,$5*
1,1,$1+$1,$6,$7*
1,1,$1+$1,$8,$9*
0 Add four rect primitives between the rounded corners*
20,1,$1+$1,$2,$3,$4,$5,0*
20,1,$1+$1,$4,$5,$6,$7,0*
20,1,$1+$1,$6,$7,$8,$9,0*
20,1,$1+$1,$8,$9,$2,$3,0*%
G04 Aperture macros list end*
%ADD10O,3.220000X1.712000*%
%ADD11O,1.712000X3.220000*%
%ADD12C,1.498600*%
%ADD13RoundRect,0.250000X-0.650000X0.325000X-0.650000X-0.325000X0.650000X-0.325000X0.650000X0.325000X0*%
%ADD14R,0.508000X1.016000*%
%ADD15RoundRect,0.237500X-0.237500X0.300000X-0.237500X-0.300000X0.237500X-0.300000X0.237500X0.300000X0*%
%ADD16C,1.500000*%
%ADD17C,5.400000*%
%ADD18C,1.803400*%
%ADD19R,0.838200X1.447800*%
%ADD20R,0.711200X0.914400*%
%ADD21RoundRect,0.237500X-0.237500X0.250000X-0.237500X-0.250000X0.237500X-0.250000X0.237500X0.250000X0*%
%ADD22C,1.854000*%
%ADD23RoundRect,0.237500X0.250000X0.237500X-0.250000X0.237500X-0.250000X-0.237500X0.250000X-0.237500X0*%
%ADD24RoundRect,0.200000X0.200000X0.275000X-0.200000X0.275000X-0.200000X-0.275000X0.200000X-0.275000X0*%
%ADD25RoundRect,0.102000X-0.400000X-0.400000X0.400000X-0.400000X0.400000X0.400000X-0.400000X0.400000X0*%
G04 APERTURE END LIST*
D10*
%TO.C,J2*%
X129000000Y-125500000D03*
X129000000Y-131500000D03*
D11*
X133700000Y-128500000D03*
%TD*%
D12*
%TO.C,J1*%
X125500000Y-67600000D03*
X122960000Y-67600000D03*
X125500000Y-70140000D03*
X122960000Y-70140000D03*
X125500000Y-72680000D03*
X122960000Y-72680000D03*
X125500000Y-75220000D03*
X122960000Y-75220000D03*
X125500000Y-77760000D03*
X122960000Y-77760000D03*
X125500000Y-80300000D03*
X122960000Y-80300000D03*
X125500000Y-82840000D03*
X122960000Y-82840000D03*
X125500000Y-85380000D03*
X122960000Y-85380000D03*
X125500000Y-87920000D03*
X122960000Y-87920000D03*
X125500000Y-90460000D03*
X122960000Y-90460000D03*
X125500000Y-93000000D03*
X122960000Y-93000000D03*
X125500000Y-95540000D03*
X122960000Y-95540000D03*
X125500000Y-98080000D03*
X122960000Y-98080000D03*
X125500000Y-100620000D03*
X122960000Y-100620000D03*
X125500000Y-103160000D03*
X122960000Y-103160000D03*
X125500000Y-105700000D03*
X122960000Y-105700000D03*
X125500000Y-108240000D03*
X122960000Y-108240000D03*
X125500000Y-110780000D03*
X122960000Y-110780000D03*
X125500000Y-113320000D03*
X122960000Y-113320000D03*
X125500000Y-115860000D03*
X122960000Y-115860000D03*
%TD*%
D13*
%TO.C,C9*%
X160000000Y-130162500D03*
X160000000Y-133112500D03*
%TD*%
D14*
%TO.C,Q4*%
X141095000Y-98500000D03*
X143000000Y-98500000D03*
X142047500Y-96809150D03*
%TD*%
D15*
%TO.C,C6*%
X163000000Y-130775000D03*
X163000000Y-132500000D03*
%TD*%
%TO.C,C7*%
X154000000Y-130775000D03*
X154000000Y-132500000D03*
%TD*%
D16*
%TO.C,TP4*%
X141500000Y-87000000D03*
%TD*%
%TO.C,U3*%
X138387500Y-111650000D03*
X138387500Y-124350000D03*
X147912500Y-124350000D03*
X151087500Y-124350000D03*
X154262500Y-124350000D03*
X160612500Y-124350000D03*
X160612500Y-111650000D03*
%TD*%
D15*
%TO.C,C5*%
X166000000Y-130775000D03*
X166000000Y-132500000D03*
%TD*%
%TO.C,C2*%
X143000000Y-131000000D03*
X143000000Y-132725000D03*
%TD*%
D12*
%TO.C,J3*%
X176466600Y-66029801D03*
X173966600Y-66029801D03*
X171466600Y-66029801D03*
X168966600Y-66029801D03*
X166466600Y-66029801D03*
%TD*%
D17*
%TO.C,H4*%
X178000000Y-135500000D03*
%TD*%
D12*
%TO.C,J11*%
X176500000Y-126500000D03*
X174000000Y-126500000D03*
X171500000Y-126500000D03*
X169000000Y-126500000D03*
X166500000Y-126500000D03*
%TD*%
D18*
%TO.C,K2*%
X150000000Y-84569998D03*
X150000000Y-99809998D03*
X157600000Y-99809998D03*
X157600000Y-87109998D03*
%TD*%
D13*
%TO.C,C8*%
X149000000Y-130162500D03*
X149000000Y-133112500D03*
%TD*%
D12*
%TO.C,J9*%
X176466600Y-111500000D03*
X173966600Y-111500000D03*
X171466600Y-111500000D03*
X168966600Y-111500000D03*
X166466600Y-111500000D03*
%TD*%
D17*
%TO.C,H1*%
X120000000Y-57500000D03*
%TD*%
D12*
%TO.C,J7*%
X176500000Y-96000000D03*
X174000000Y-96000000D03*
X171500000Y-96000000D03*
X169000000Y-96000000D03*
X166500000Y-96000000D03*
%TD*%
D13*
%TO.C,C1*%
X146000000Y-130387500D03*
X146000000Y-133337500D03*
%TD*%
D17*
%TO.C,H3*%
X120000000Y-135500000D03*
%TD*%
D12*
%TO.C,J4*%
X176500000Y-73500000D03*
X174000000Y-73500000D03*
X171500000Y-73500000D03*
X169000000Y-73500000D03*
X166500000Y-73500000D03*
%TD*%
D17*
%TO.C,H2*%
X178000000Y-57500000D03*
%TD*%
D13*
%TO.C,C10*%
X157000000Y-130162500D03*
X157000000Y-133112500D03*
%TD*%
D12*
%TO.C,J6*%
X176500000Y-88500000D03*
X174000000Y-88500000D03*
X171500000Y-88500000D03*
X169000000Y-88500000D03*
X166500000Y-88500000D03*
%TD*%
D19*
%TO.C,CR2*%
X146500000Y-95225300D03*
D20*
X146500000Y-97041400D03*
%TD*%
D12*
%TO.C,J8*%
X176466600Y-104029801D03*
X173966600Y-104029801D03*
X171466600Y-104029801D03*
X168966600Y-104029801D03*
X166466600Y-104029801D03*
%TD*%
D21*
%TO.C,R6*%
X141500000Y-91087500D03*
X141500000Y-92912500D03*
%TD*%
D22*
%TO.C,J12*%
X145920000Y-75500000D03*
X148460000Y-75500000D03*
X151000000Y-75500000D03*
X153540000Y-75500000D03*
X156080000Y-75500000D03*
%TD*%
D12*
%TO.C,J10*%
X176500000Y-119000000D03*
X174000000Y-119000000D03*
X171500000Y-119000000D03*
X169000000Y-119000000D03*
X166500000Y-119000000D03*
%TD*%
D16*
%TO.C,TP2*%
X141000000Y-137500000D03*
%TD*%
D12*
%TO.C,J5*%
X176500000Y-81000000D03*
X174000000Y-81000000D03*
X171500000Y-81000000D03*
X169000000Y-81000000D03*
X166500000Y-81000000D03*
%TD*%
D23*
%TO.C,R1*%
X158412500Y-136500000D03*
X156587500Y-136500000D03*
%TD*%
D24*
%TO.C,R2*%
X149000000Y-136500000D03*
X147350000Y-136500000D03*
%TD*%
D23*
%TO.C,R5*%
X136912500Y-91087500D03*
X135087500Y-91087500D03*
%TD*%
D14*
%TO.C,Q3*%
X135047500Y-98394400D03*
X136952500Y-98394400D03*
X136000000Y-96703550D03*
%TD*%
D15*
%TO.C,C4*%
X137000000Y-131000000D03*
X137000000Y-132725000D03*
%TD*%
%TO.C,C3*%
X140000000Y-131000000D03*
X140000000Y-132725000D03*
%TD*%
D25*
%TO.C,D1*%
X152675000Y-136500000D03*
X154275000Y-136500000D03*
%TD*%
D16*
%TO.C,TP3*%
X172000000Y-137500000D03*
%TD*%
%TO.C,TP1*%
X136500000Y-137500000D03*
%TD*%
M02*
