%TF.GenerationSoftware,KiCad,Pcbnew,8.0.8*%
%TF.CreationDate,2025-02-04T22:00:34-05:00*%
%TF.ProjectId,lysimeter-pcb,6c797369-6d65-4746-9572-2d7063622e6b,rev?*%
%TF.SameCoordinates,Original*%
%TF.FileFunction,Soldermask,Bot*%
%TF.FilePolarity,Negative*%
%FSLAX46Y46*%
G04 Gerber Fmt 4.6, Leading zero omitted, Abs format (unit mm)*
G04 Created by KiCad (PCBNEW 8.0.8) date 2025-02-04 22:00:34*
%MOMM*%
%LPD*%
G01*
G04 APERTURE LIST*
%ADD10O,3.220000X1.712000*%
%ADD11O,1.712000X3.220000*%
%ADD12C,1.498600*%
%ADD13C,1.500000*%
%ADD14C,5.400000*%
%ADD15C,1.803400*%
%ADD16C,1.854000*%
G04 APERTURE END LIST*
D10*
%TO.C,J2*%
X129000000Y-125500000D03*
X129000000Y-131500000D03*
D11*
X133700000Y-128500000D03*
%TD*%
D12*
%TO.C,J1*%
X125500000Y-67600000D03*
X122960000Y-67600000D03*
X125500000Y-70140000D03*
X122960000Y-70140000D03*
X125500000Y-72680000D03*
X122960000Y-72680000D03*
X125500000Y-75220000D03*
X122960000Y-75220000D03*
X125500000Y-77760000D03*
X122960000Y-77760000D03*
X125500000Y-80300000D03*
X122960000Y-80300000D03*
X125500000Y-82840000D03*
X122960000Y-82840000D03*
X125500000Y-85380000D03*
X122960000Y-85380000D03*
X125500000Y-87920000D03*
X122960000Y-87920000D03*
X125500000Y-90460000D03*
X122960000Y-90460000D03*
X125500000Y-93000000D03*
X122960000Y-93000000D03*
X125500000Y-95540000D03*
X122960000Y-95540000D03*
X125500000Y-98080000D03*
X122960000Y-98080000D03*
X125500000Y-100620000D03*
X122960000Y-100620000D03*
X125500000Y-103160000D03*
X122960000Y-103160000D03*
X125500000Y-105700000D03*
X122960000Y-105700000D03*
X125500000Y-108240000D03*
X122960000Y-108240000D03*
X125500000Y-110780000D03*
X122960000Y-110780000D03*
X125500000Y-113320000D03*
X122960000Y-113320000D03*
X125500000Y-115860000D03*
X122960000Y-115860000D03*
%TD*%
D13*
%TO.C,U3*%
X138387500Y-111650000D03*
X138387500Y-124350000D03*
X147912500Y-124350000D03*
X151087500Y-124350000D03*
X154262500Y-124350000D03*
X160612500Y-124350000D03*
X160612500Y-111650000D03*
%TD*%
D12*
%TO.C,J3*%
X176466600Y-66029801D03*
X173966600Y-66029801D03*
X171466600Y-66029801D03*
X168966600Y-66029801D03*
X166466600Y-66029801D03*
%TD*%
D14*
%TO.C,H4*%
X178000000Y-135500000D03*
%TD*%
D12*
%TO.C,J11*%
X176500000Y-126500000D03*
X174000000Y-126500000D03*
X171500000Y-126500000D03*
X169000000Y-126500000D03*
X166500000Y-126500000D03*
%TD*%
D15*
%TO.C,K2*%
X150000000Y-84569998D03*
X150000000Y-99809998D03*
X157600000Y-99809998D03*
X157600000Y-87109998D03*
%TD*%
D12*
%TO.C,J9*%
X176466600Y-111500000D03*
X173966600Y-111500000D03*
X171466600Y-111500000D03*
X168966600Y-111500000D03*
X166466600Y-111500000D03*
%TD*%
D14*
%TO.C,H1*%
X120000000Y-57500000D03*
%TD*%
D12*
%TO.C,J7*%
X176500000Y-96000000D03*
X174000000Y-96000000D03*
X171500000Y-96000000D03*
X169000000Y-96000000D03*
X166500000Y-96000000D03*
%TD*%
D14*
%TO.C,H3*%
X120000000Y-135500000D03*
%TD*%
D12*
%TO.C,J4*%
X176500000Y-73500000D03*
X174000000Y-73500000D03*
X171500000Y-73500000D03*
X169000000Y-73500000D03*
X166500000Y-73500000D03*
%TD*%
D14*
%TO.C,H2*%
X178000000Y-57500000D03*
%TD*%
D12*
%TO.C,J6*%
X176500000Y-88500000D03*
X174000000Y-88500000D03*
X171500000Y-88500000D03*
X169000000Y-88500000D03*
X166500000Y-88500000D03*
%TD*%
%TO.C,J8*%
X176466600Y-104029801D03*
X173966600Y-104029801D03*
X171466600Y-104029801D03*
X168966600Y-104029801D03*
X166466600Y-104029801D03*
%TD*%
D16*
%TO.C,J12*%
X145920000Y-75500000D03*
X148460000Y-75500000D03*
X151000000Y-75500000D03*
X153540000Y-75500000D03*
X156080000Y-75500000D03*
%TD*%
D12*
%TO.C,J10*%
X176500000Y-119000000D03*
X174000000Y-119000000D03*
X171500000Y-119000000D03*
X169000000Y-119000000D03*
X166500000Y-119000000D03*
%TD*%
%TO.C,J5*%
X176500000Y-81000000D03*
X174000000Y-81000000D03*
X171500000Y-81000000D03*
X169000000Y-81000000D03*
X166500000Y-81000000D03*
%TD*%
M02*
