M48
; DRILL file {KiCad 8.0.8} date 2025-02-04T22:00:46-0500
; FORMAT={-:-/ absolute / metric / decimal}
; #@! TF.CreationDate,2025-02-04T22:00:46-05:00
; #@! TF.GenerationSoftware,Kicad,Pcbnew,8.0.8
; #@! TF.FileFunction,Plated,1,2,PTH
FMAT,2
METRIC
; #@! TA.AperFunction,Plated,PTH,ViaDrill
T1C0.300
; #@! TA.AperFunction,Plated,PTH,ComponentDrill
T2C0.991
; #@! TA.AperFunction,Plated,PTH,ComponentDrill
T3C1.000
; #@! TA.AperFunction,Plated,PTH,ComponentDrill
T4C1.020
; #@! TA.AperFunction,Plated,PTH,ComponentDrill
T5C1.100
; #@! TA.AperFunction,Plated,PTH,ComponentDrill
T6C1.295
; #@! TA.AperFunction,Plated,PTH,ComponentDrill
T7C2.700
%
G90
G05
T1
X135.0Y-136.0
X137.02Y-134.0
X138.0Y-98.5
X139.5Y-136.0
X140.0Y-85.5
X140.01Y-134.0
X143.0Y-99.5
X143.0Y-134.0
X145.99Y-134.0
X146.0Y-136.5
X149.0Y-134.0
X151.5Y-136.5
X154.0Y-133.5
X157.0Y-133.5
X160.0Y-133.5
X163.0Y-133.5
X166.0Y-133.5
X170.5Y-136.0
T2
X122.96Y-67.6
X122.96Y-70.14
X122.96Y-72.68
X122.96Y-75.22
X122.96Y-77.76
X122.96Y-80.3
X122.96Y-82.84
X122.96Y-85.38
X122.96Y-87.92
X122.96Y-90.46
X122.96Y-93.0
X122.96Y-95.54
X122.96Y-98.08
X122.96Y-100.62
X122.96Y-103.16
X122.96Y-105.7
X122.96Y-108.24
X122.96Y-110.78
X122.96Y-113.32
X122.96Y-115.86
X125.5Y-67.6
X125.5Y-70.14
X125.5Y-72.68
X125.5Y-75.22
X125.5Y-77.76
X125.5Y-80.3
X125.5Y-82.84
X125.5Y-85.38
X125.5Y-87.92
X125.5Y-90.46
X125.5Y-93.0
X125.5Y-95.54
X125.5Y-98.08
X125.5Y-100.62
X125.5Y-103.16
X125.5Y-105.7
X125.5Y-108.24
X125.5Y-110.78
X125.5Y-113.32
X125.5Y-115.86
X166.467Y-66.03
X166.467Y-104.03
X166.467Y-111.5
X166.5Y-73.5
X166.5Y-81.0
X166.5Y-88.5
X166.5Y-96.0
X166.5Y-119.0
X166.5Y-126.5
X168.967Y-66.03
X168.967Y-104.03
X168.967Y-111.5
X169.0Y-73.5
X169.0Y-81.0
X169.0Y-88.5
X169.0Y-96.0
X169.0Y-119.0
X169.0Y-126.5
X171.467Y-66.03
X171.467Y-104.03
X171.467Y-111.5
X171.5Y-73.5
X171.5Y-81.0
X171.5Y-88.5
X171.5Y-96.0
X171.5Y-119.0
X171.5Y-126.5
X173.967Y-66.03
X173.967Y-104.03
X173.967Y-111.5
X174.0Y-73.5
X174.0Y-81.0
X174.0Y-88.5
X174.0Y-96.0
X174.0Y-119.0
X174.0Y-126.5
X176.467Y-66.03
X176.467Y-104.03
X176.467Y-111.5
X176.5Y-73.5
X176.5Y-81.0
X176.5Y-88.5
X176.5Y-96.0
X176.5Y-119.0
X176.5Y-126.5
T4
X138.387Y-111.65
X138.387Y-124.35
X147.912Y-124.35
X151.088Y-124.35
X154.262Y-124.35
X160.612Y-111.65
X160.612Y-124.35
T5
X145.92Y-75.5
X148.46Y-75.5
X151.0Y-75.5
X153.54Y-75.5
X156.08Y-75.5
T6
X150.0Y-84.57
X150.0Y-99.81
X157.6Y-87.11
X157.6Y-99.81
T7
X120.0Y-57.5
X120.0Y-135.5
X178.0Y-57.5
X178.0Y-135.5
T3
G00X129.3Y-125.5
M15
G01X128.7Y-125.5
M16
G05
G00X129.3Y-131.5
M15
G01X128.7Y-131.5
M16
G05
G00X133.7Y-128.2
M15
G01X133.7Y-128.8
M16
G05
M30
